<svg fill="none" height="18" viewBox="0 0 18 18" width="18" xmlns="http://www.w3.org/2000/svg"><path d="m10.0001 5.79984v-1h-2.00002v1zm-2.00002 6.39996v1h2.00002v-1zm-2.19922-4.19998h-1v2h1zm6.40004 2h1v-2h-1zm3.7991-.99982c0 3.866-3.134 7-7 7v2c4.9706 0 9-4.0294 9-9zm-7 7c-3.86599 0-7-3.134-7-7h-2c0 4.9706 4.02944 9 9 9zm-7-7c0-3.86599 3.13401-7 7-7v-2c-4.97056 0-9 4.02944-9 9zm7-7c3.866 0 7 3.13401 7 7h2c0-4.97056-4.0294-9-9-9zm-.99992 3.79984v6.39996h2.00002v-6.39996zm-2.19922 4.19998h6.40004v-2h-6.40004z" fill="#556ef2"/></svg>