<svg width="48" height="48" viewBox="0 0 48 48" fill="none" xmlns="http://www.w3.org/2000/svg">
<path d="M0 5C0 2.23858 2.23858 0 5 0H43C45.7614 0 48 2.23858 48 5V43C48 45.7614 45.7614 48 43 48H5C2.23858 48 0 45.7614 0 43V5Z" fill="#556EF2"/>
<path d="M4.27009 18.7914H7.00077L9.88486 25.8278H10.0076L12.8917 18.7914H15.6224V29.2642H13.4746V22.4477H13.3877L10.6775 29.213H9.21498L6.50475 22.4221H6.41782V29.2642H4.27009V18.7914ZM17.4467 29.2642V18.7914H24.5035V20.617H19.6609V23.1125H24.1404V24.938H19.6609V27.4386H24.5239V29.2642H17.4467ZM26.2638 29.2642V18.7914H28.478V27.4386H32.9678V29.2642H26.2638ZM36.5065 29.2642H34.1337L37.7491 18.7914H40.6025L44.2127 29.2642H41.84L39.2167 21.1846H39.1349L36.5065 29.2642ZM36.3582 25.1477H41.9627V26.8761H36.3582V25.1477Z" fill="white"/>
</svg>
